# xmcd
#
# Track frame offsets:
#	150
#	10140
#	23122
#	39787
#	49604
#	69224
#	82214
#	101939
#	118664
#	134924
#	149076
#
# Disc length: 2162 seconds
#
# Revision: 0
# Processed by: cddbd v1.5.2PL0 Copyright (c) Steve Scherf et al.
# Submitted via: EasyCDDAExtractor 16.0.6.1
#
DISCID=9c08700b
DTITLE=Βιτάλη Ελένη - Τα δημοτικά της Ελένης Βιτάλη-LP
DYEAR=1981
DGENRE=Παραδοσιακή
TTITLE0=Τι να σε κάνω γαλανή [καλαματιανός]
TTITLE1=Πρωτομαγιά [τσάμικος, διασκ. Τ. Καρακατσάνης]
TTITLE2=Μάρκος Μπότσαρης [της τάβλας-κλέφτικο]
TTITLE3=Καναρίνι [συρτός-μικρασιάτικο]
TTITLE4=Βγήκα ψηλά και πλάγιασα [της τάβλας-κλέφτικο]
TTITLE5=Γιούργια [Θεσσαλίας]
TTITLE6=Κάψανε τα Καλάβρυτα [της τάβλας-κλέφτικο]
TTITLE7=Ο ήλιος εβασίλεψε [μπάλλος, διασκ. Τ. Καρακατσάνης]
TTITLE8=Χαμένη αγάπη [τσάμικος, διασκ. Τ. Καρακατσάνης]
TTITLE9=Ξενητιά το φαρμάκι σ' [ποντιακό]
TTITLE10=Δεν μπορώ μανούλα μ' [ηπειρώτικο-πωγωνίσιο]
EXTD=
EXTT0=
EXTT1=
EXTT2=
EXTT3=
EXTT4=
EXTT5=
EXTT6=
EXTT7=
EXTT8=
EXTT9=
EXTT10=
PLAYORDER=
